<svg width="1440" height="1440" viewBox="0 0 1440 1440" fill="none" xmlns="http://www.w3.org/2000/svg">
<g clip-path="url(#clip0_24_2)">
<mask id="mask0_24_2" style="mask-type:luminance" maskUnits="userSpaceOnUse" x="0" y="0" width="1440" height="1440">
<path d="M0 -4.29153e-05H1440V1440H0V-4.29153e-05Z" fill="white"/>
</mask>
<g mask="url(#mask0_24_2)">
<path d="M589.986 813.256C589.944 813.265 589.903 813.276 589.862 813.286C586.123 814.204 582.65 811.038 583.216 807.23C584.895 795.96 586.574 784.689 588.251 773.418C589.186 773.418 588.926 773.418 589.86 773.417C591.503 784.304 593.148 795.19 594.792 806.077C595.287 809.352 593.203 812.465 589.986 813.256ZM763.711 678.572C752.144 682.145 740.598 685.78 729.06 689.448C725.352 690.625 722.564 693.7 721.754 697.504C718.087 714.685 712.694 739.03 709.478 753.474C708.81 756.476 704.55 756.516 703.816 753.53C700.339 739.361 696.862 725.19 693.386 711.021C692.13 705.904 686.815 702.906 681.79 704.486C670.596 708.004 659.392 711.48 648.151 714.834C644.527 715.916 642.039 719.237 642.039 723.018C642.039 757.832 642.039 792.644 642.038 827.457C633.824 795.753 625.619 764.046 617.442 732.333C616.292 727.877 611.747 725.189 607.295 726.35C594.77 729.616 582.211 732.68 569.578 735.505C566.436 736.208 563.975 738.641 563.259 741.78C556.97 769.369 550.655 796.952 544.327 824.533C543.844 821.124 542.946 818.11 541.623 815.498C539.54 811.388 536.986 808.002 533.956 805.325C530.928 802.646 527.711 800.536 524.303 798.98C520.896 797.424 517.802 796.134 515.028 795.12C510.107 793.39 506.794 791.946 505.091 790.888C503.388 789.832 502.535 788.3 502.535 786.309C502.535 783.822 503.354 782 504.996 780.825C506.635 779.653 508.466 778.949 510.486 778.708C513.135 778.39 515.911 778.754 518.814 779.79C519.228 779.938 519.635 780.094 520.034 780.257C523.979 781.872 528.51 780.512 530.708 776.86C534.5 770.56 538.28 764.253 542.05 757.938C544.815 753.306 542.7 747.33 537.666 745.396C535.484 744.558 533.144 743.85 530.644 743.268C524.274 741.781 517.046 741.568 508.971 742.508C503.671 743.125 498.275 744.48 492.787 746.553C487.298 748.625 482.311 751.525 477.832 755.293C473.354 759.062 469.662 763.785 466.76 769.512C463.858 775.242 462.406 782.126 462.406 790.208C462.406 795.805 463.195 800.681 464.772 804.813C466.35 808.949 468.466 812.54 471.114 815.553C473.763 818.57 476.794 821.086 480.199 823.072C483.606 825.058 487.247 826.76 490.988 828.22C495.382 829.934 498.656 831.536 500.738 832.942C502.819 834.35 503.86 836.229 503.86 838.59C503.86 840.581 503.131 842.184 501.683 843.386C500.231 844.592 498.434 845.297 496.288 845.492C492.882 845.8 489.442 845.328 485.972 844.073C484.94 843.7 483.934 843.284 482.952 842.824C478.974 840.96 474.24 842.329 471.908 846.052C468.339 851.753 464.754 857.444 461.154 863.124C458.544 867.242 459.812 872.738 464.023 875.197C464.051 875.213 464.08 875.23 464.11 875.248C467.01 876.934 470.198 878.404 473.668 879.63C477.138 880.856 480.924 881.748 485.026 882.286C489.126 882.822 493.45 882.885 497.992 882.457C503.795 881.912 509.507 880.398 515.123 877.936C520.735 875.476 525.752 872.068 530.171 867.769C532.327 865.672 534.27 863.34 536.006 860.785C535.88 861.33 535.755 861.877 535.63 862.422C534.284 868.265 539.36 873.553 545.26 872.484C553.042 871.073 560.799 869.53 568.526 867.848C571.786 867.137 574.296 864.525 574.914 861.245C575.463 858.337 575.935 855.828 576.484 852.912C577.095 849.668 579.562 847.085 582.776 846.333C586.163 845.541 589.031 844.849 592.166 844.066C596.762 842.921 601.392 845.826 602.354 850.464L602.386 850.62C603.36 855.317 608.09 858.24 612.719 856.98C621.634 854.553 630.523 852.046 639.396 849.473C642.559 848.556 644.756 845.912 645.27 842.853C647.691 845.025 651.164 845.988 654.627 844.94C660.307 843.218 665.983 841.48 671.654 839.726C675.972 838.389 678.879 834.342 678.775 829.822C678.371 812.037 677.967 794.253 677.562 776.468C677.523 774.742 680.003 774.428 680.394 776.109C683.412 789.082 688.002 808.921 691.404 824.165C692.454 828.868 697.311 831.653 701.9 830.19C706.003 828.882 710.104 827.573 714.206 826.262C717.447 825.228 719.879 822.533 720.576 819.202C724.436 800.758 730.251 773.982 733.79 757.76C734.146 756.128 736.555 756.418 736.514 758.089C736.099 774.702 735.686 791.317 735.271 807.932C735.128 813.658 740.66 817.832 746.124 816.11C752.788 814.01 759.459 811.929 766.14 809.88C771.463 808.246 775.107 803.346 775.107 797.777C775.107 760.85 775.108 723.924 775.108 686.997C775.108 681.072 769.372 676.824 763.711 678.572Z" fill="#025920"/>
<path d="M570.807 726.219C591.188 721.623 611.372 716.378 631.483 710.695C634.202 709.926 636.076 707.438 636.076 704.614V681.868C636.076 677.676 632.072 674.658 628.036 675.792C621.923 677.514 615.802 679.199 609.668 680.85C605.66 681.927 601.724 678.894 601.724 674.744V674.22C601.724 671.35 603.663 668.848 606.44 668.118C612.998 666.39 619.54 664.6 626.067 662.759C628.788 661.992 630.663 659.503 630.663 656.676C630.663 650.195 630.663 643.715 630.663 637.234C630.663 633.059 626.684 630.026 622.664 631.147C618.344 632.352 614.019 633.535 609.686 634.69C605.67 635.762 601.724 632.747 601.724 628.59C601.724 625.719 603.663 623.219 606.438 622.488C614.002 620.495 621.544 618.422 629.067 616.28C631.78 615.508 633.65 613.022 633.65 610.2C633.65 602.852 633.65 595.506 633.65 588.159C633.65 583.987 629.674 580.955 625.654 582.072C606.559 587.382 587.39 592.275 568.036 596.575C565.143 597.218 563.079 599.772 563.079 602.736C563.079 641.844 563.079 680.952 563.079 720.06C563.079 724.119 566.848 727.111 570.807 726.219Z" fill="#025920"/>
<path d="M646.82 609.824C649.18 609.123 651.54 608.415 653.896 607.703C657.947 606.479 662.027 609.521 662.027 613.752C662.027 640.192 662.027 666.632 662.027 693.072C662.027 697.325 666.147 700.369 670.209 699.109C679.344 696.275 688.467 693.399 697.58 690.497C700.2 689.663 701.98 687.225 701.98 684.476V597.296C701.98 594.548 703.756 592.116 706.373 591.28C711.224 589.731 716.072 588.18 720.921 586.632C723.539 585.795 725.316 583.363 725.316 580.615C725.316 573.751 725.316 566.885 725.316 560.021C725.316 555.744 721.153 552.704 717.077 554.005C692.505 561.851 667.925 569.659 643.203 577.024C640.525 577.821 638.689 580.277 638.689 583.069V603.773C638.689 608.003 642.765 611.029 646.82 609.824Z" fill="#025920"/>
<path d="M791.402 619.815C791.402 630.827 791.402 641.839 791.402 652.851C791.402 657.043 795.41 660.075 799.441 658.925C808.591 656.317 817.767 653.795 826.979 651.415C829.771 650.693 831.727 648.185 831.727 645.301V528.088C831.727 523.943 827.805 520.927 823.795 521.977C814.487 524.416 805.214 526.995 795.967 529.655C793.262 530.432 791.402 532.912 791.402 535.727V570.767C791.402 573.569 789.551 576.037 786.861 576.828C784.994 577.376 783.318 577.872 781.605 578.383C777.553 579.592 773.481 576.559 773.481 572.331C773.481 563.165 773.481 554.001 773.481 544.837C773.481 540.592 769.374 537.547 765.318 538.792C756.051 541.639 746.802 544.545 737.562 547.476C734.938 548.308 733.155 550.747 733.155 553.5V670.513C733.155 674.785 737.306 677.821 741.379 676.533C750.577 673.624 759.782 670.744 769.007 667.928C771.665 667.117 773.481 664.672 773.481 661.893V621.397C773.481 618.611 775.31 616.152 777.978 615.348C779.867 614.779 781.561 614.272 783.291 613.759C787.339 612.557 791.402 615.592 791.402 619.815Z" fill="#025920"/>
<path d="M832.934 754.714C831.104 756.837 828.736 758.27 825.835 759.025C825.675 759.066 825.52 759.106 825.37 759.146C821.963 760.033 818.643 757.459 818.643 753.939V746.217C818.643 743.774 820.288 741.638 822.65 741.017C823.598 740.766 824.579 740.51 825.835 740.183C828.358 739.527 830.631 739.715 832.65 740.745C834.666 741.773 835.678 743.959 835.678 747.281C835.678 750.114 834.762 752.594 832.934 754.714ZM818.643 700.139C818.643 697.695 820.29 695.559 822.652 694.938C823.484 694.718 824.36 694.49 825.456 694.203C827.979 693.547 830.066 693.699 831.703 694.65C833.34 695.601 834.163 697.451 834.163 700.186C834.163 703.422 833.374 705.95 831.798 707.778C830.218 709.61 828.106 710.863 825.456 711.554C825.428 711.561 825.402 711.567 825.375 711.575C821.967 712.462 818.643 709.891 818.643 706.37V700.139ZM859.736 777.313C860.212 776.882 860.683 776.445 861.146 775.995C861.499 775.537 861.854 775.077 862.208 774.617C863.55 772.278 864.722 770.038 865.775 767.874L917.172 797.565L993.134 753.217L916.824 628.582L862.195 718.269C861.671 715.685 861.352 714.107 860.736 711.07C862.612 708.891 864.26 706.506 865.679 703.909C868.518 698.714 869.939 692.582 869.939 685.494C869.939 677.909 868.548 672.059 865.775 667.979C863 663.898 859.494 661.102 855.27 659.626C851.042 658.15 846.4 657.611 841.356 658.025C836.31 658.439 831.575 659.229 827.16 660.37C812.866 664.143 798.648 668.133 784.463 672.289C782.171 672.961 780.596 675.069 780.596 677.457C780.596 717.746 780.596 758.034 780.596 798.323C780.596 801.911 784.04 804.485 787.486 803.482C802.231 799.186 817.018 795.082 831.892 791.234C837.316 789.861 842.587 787.922 847.698 785.418C849.58 784.497 851.386 783.481 853.114 782.37L916.691 870.838L990.071 766.837L916.364 811.653L859.736 777.313Z" fill="#025920"/>
<path d="M793.426 334.485C793.196 334.485 792.961 334.465 792.726 334.424C790.55 334.04 789.098 331.964 789.482 329.789L798.018 281.445C798.402 279.269 800.481 277.814 802.653 278.202C804.829 278.586 806.281 280.661 805.897 282.836L797.361 331.18C797.018 333.12 795.33 334.485 793.426 334.485Z" fill="#025920"/>
<path d="M650.029 1147.8C649.798 1147.8 649.565 1147.78 649.331 1147.73C647.155 1147.35 645.702 1145.28 646.085 1143.1C663.566 1043.8 681.065 944.488 698.569 845.174C698.953 843 701.029 841.55 703.203 841.93C705.378 842.313 706.831 844.388 706.447 846.564C688.943 945.876 671.445 1045.19 653.963 1144.49C653.622 1146.43 651.934 1147.8 650.029 1147.8Z" fill="#025920"/>
<path d="M759.193 528.454C758.962 528.454 758.729 528.434 758.493 528.392C756.318 528.008 754.865 525.934 755.249 523.758L770.97 434.664C771.354 432.488 773.429 431.042 775.605 431.42C777.78 431.804 779.233 433.879 778.849 436.055L763.128 525.148C762.785 527.088 761.097 528.454 759.193 528.454Z" fill="#025920"/>
<path d="M778.966 416.402C778.735 416.402 778.501 416.382 778.266 416.341C776.091 415.957 774.638 413.882 775.022 411.706L782.801 367.634C783.185 365.458 785.262 364.001 787.435 364.392C789.611 364.774 791.063 366.849 790.679 369.025L782.901 413.097C782.558 415.037 780.87 416.402 778.966 416.402Z" fill="#025920"/>
<path d="M638.102 1215.43C637.878 1215.43 637.65 1215.42 637.421 1215.38C635.244 1215 633.781 1212.93 634.156 1210.76C636.778 1195.48 639.462 1180.26 642.13 1165.52C642.525 1163.35 644.602 1161.9 646.78 1162.3C648.954 1162.69 650.397 1164.77 650.004 1166.95C647.338 1181.66 644.658 1196.86 642.04 1212.11C641.706 1214.06 640.014 1215.43 638.102 1215.43Z" fill="#025920"/>
<path d="M839.857 421.535C839.402 421.535 838.939 421.456 838.487 421.292C836.413 420.536 835.342 418.24 836.098 416.164L850.023 377.931C850.781 375.853 853.078 374.785 855.151 375.541C857.227 376.297 858.297 378.592 857.541 380.669L843.615 418.903C843.023 420.527 841.49 421.535 839.857 421.535Z" fill="#025920"/>
<path d="M805.917 514.736C805.463 514.736 805.001 514.658 804.549 514.494C802.473 513.738 801.403 511.442 802.159 509.367L825.197 446.096C825.953 444.019 828.253 442.948 830.324 443.707C832.4 444.462 833.471 446.758 832.715 448.834L809.676 512.103C809.084 513.728 807.551 514.736 805.917 514.736Z" fill="#025920"/>
<path d="M605.742 1064.79C605.312 1064.79 604.878 1064.72 604.448 1064.57C602.358 1063.86 601.242 1061.59 601.956 1059.5C604.987 1050.62 608.259 1041.35 611.958 1031.15C617.095 1016.98 622.475 1002.65 627.678 988.792C634.554 970.47 641.666 951.526 648.288 932.777C649.023 930.694 651.308 929.601 653.392 930.338C655.475 931.074 656.567 933.36 655.831 935.442C649.183 954.264 642.058 973.246 635.167 991.602C629.972 1005.44 624.6 1019.75 619.478 1033.87C615.798 1044.02 612.542 1053.25 609.526 1062.08C608.959 1063.74 607.406 1064.79 605.742 1064.79Z" fill="#025920"/>
<path d="M664.742 902.59C664.288 902.59 663.826 902.511 663.374 902.347C661.298 901.593 660.228 899.297 660.984 897.221L677.892 850.75C678.648 848.674 680.945 847.607 683.018 848.359C685.094 849.115 686.165 851.41 685.409 853.486L668.501 899.957C667.91 901.581 666.376 902.59 664.742 902.59Z" fill="#025920"/>
<path d="M586.27 1118.29C585.822 1118.29 585.364 1118.21 584.919 1118.05C582.839 1117.3 581.759 1115.01 582.504 1112.93C586.828 1100.89 591.211 1088.85 595.528 1077.15C596.294 1075.08 598.594 1074.02 600.667 1074.78C602.739 1075.55 603.799 1077.85 603.034 1079.92C598.723 1091.59 594.351 1103.61 590.035 1115.63C589.448 1117.27 587.91 1118.29 586.27 1118.29Z" fill="#025920"/>
<path d="M898.086 442.359C897.407 442.359 896.719 442.186 896.088 441.822C894.176 440.718 893.522 438.271 894.626 436.358L915.314 400.543C916.419 398.63 918.864 397.975 920.779 399.081C922.691 400.186 923.346 402.633 922.242 404.545L901.554 440.359C900.812 441.642 899.468 442.359 898.086 442.359Z" fill="#025920"/>
<path d="M550.199 1044.94C549.52 1044.94 548.834 1044.76 548.203 1044.4C546.29 1043.3 545.634 1040.85 546.738 1038.94L564.455 1008.23C565.56 1006.32 568.006 1005.67 569.919 1006.77C571.832 1007.87 572.488 1010.32 571.384 1012.23L553.668 1042.93C552.927 1044.22 551.582 1044.94 550.199 1044.94Z" fill="#025920"/>
<path d="M578.64 995.648C577.961 995.648 577.275 995.476 576.644 995.112C574.731 994.008 574.075 991.561 575.18 989.648L650.731 858.742C651.836 856.83 654.281 856.173 656.195 857.278C658.108 858.382 658.764 860.829 657.66 862.741L582.108 993.646C581.368 994.929 580.023 995.648 578.64 995.648Z" fill="#025920"/>
<path d="M847.153 530.544C846.475 530.544 845.787 530.371 845.156 530.007C843.244 528.903 842.589 526.456 843.693 524.543L878.431 464.395C879.535 462.483 881.983 461.827 883.895 462.932C885.808 464.038 886.463 466.484 885.357 468.396L850.621 528.544C849.88 529.827 848.536 530.544 847.153 530.544Z" fill="#025920"/>
<path d="M521.266 1095.05C520.594 1095.05 519.911 1094.88 519.286 1094.52C517.367 1093.42 516.701 1090.98 517.797 1089.06C524.271 1077.73 530.783 1066.45 537.15 1055.54C538.262 1053.64 540.711 1052.99 542.621 1054.1C544.529 1055.22 545.173 1057.67 544.059 1059.58C537.705 1070.47 531.206 1081.72 524.742 1093.03C524.005 1094.32 522.655 1095.05 521.266 1095.05Z" fill="#025920"/>
<path d="M988.583 430.721C987.675 430.721 986.763 430.415 986.013 429.785C984.321 428.364 984.101 425.841 985.521 424.149L1016.72 386.987C1018.14 385.295 1020.66 385.075 1022.35 386.495C1024.05 387.915 1024.27 390.439 1022.85 392.129L991.648 429.293C990.857 430.236 989.724 430.721 988.583 430.721Z" fill="#025920"/>
<path d="M847.233 599.123C846.325 599.123 845.413 598.816 844.664 598.187C842.972 596.767 842.751 594.243 844.172 592.551C883.156 546.1 922.135 499.66 961.097 453.243C962.519 451.552 965.043 451.332 966.733 452.751C968.425 454.172 968.645 456.695 967.225 458.387C928.263 504.804 889.284 551.243 850.299 597.695C849.508 598.638 848.375 599.123 847.233 599.123Z" fill="#025920"/>
<path d="M463.894 1056.04C462.98 1056.04 462.06 1055.73 461.308 1055.09C459.624 1053.66 459.417 1051.13 460.846 1049.45C465.797 1043.62 470.724 1037.77 475.634 1031.9C477.052 1030.21 479.574 1029.99 481.269 1031.41C482.962 1032.82 483.185 1035.35 481.766 1037.04C476.844 1042.92 471.908 1048.78 466.946 1054.63C466.154 1055.56 465.028 1056.04 463.894 1056.04Z" fill="#025920"/>
<path d="M496.328 1017.32C495.426 1017.32 494.521 1017.02 493.773 1016.4C492.074 1014.99 491.841 1012.46 493.253 1010.77L498.748 1004.15C514.434 985.266 530.654 965.738 546.946 946.796C548.386 945.123 550.912 944.931 552.586 946.372C554.262 947.812 554.452 950.338 553.012 952.012C536.764 970.903 520.566 990.404 504.902 1009.26L499.406 1015.88C498.614 1016.83 497.476 1017.32 496.328 1017.32Z" fill="#025920"/>
<path d="M567.316 932.734C566.408 932.734 565.496 932.428 564.747 931.798C563.055 930.378 562.834 927.856 564.254 926.164L611.49 869.854C612.91 868.162 615.434 867.942 617.124 869.361C618.816 870.781 619.039 873.304 617.619 874.997L570.383 931.305C569.592 932.248 568.458 932.734 567.316 932.734Z" fill="#025920"/>
<path d="M420.258 1108.04C419.357 1108.04 418.45 1107.74 417.702 1107.12C416.005 1105.71 415.771 1103.18 417.185 1101.48C426.962 1089.73 436.781 1078.02 446.369 1066.7C447.795 1065.02 450.318 1064.81 452.006 1066.24C453.691 1067.67 453.899 1070.19 452.473 1071.88C442.901 1083.18 433.098 1094.86 423.335 1106.6C422.545 1107.55 421.405 1108.04 420.258 1108.04Z" fill="#025920"/>
<path d="M1018.36 500.453C1017.22 500.453 1016.09 499.966 1015.29 499.023C1013.87 497.331 1014.1 494.807 1015.79 493.389L1050.44 464.322C1052.14 462.902 1054.66 463.123 1056.08 464.817C1057.5 466.51 1057.28 469.033 1055.58 470.453L1020.93 499.517C1020.18 500.146 1019.27 500.453 1018.36 500.453Z" fill="#025920"/>
<path d="M487.541 945.856C486.399 945.856 485.266 945.371 484.475 944.428C483.055 942.736 483.275 940.213 484.967 938.792L550.565 883.731C552.255 882.309 554.779 882.529 556.199 884.223C557.621 885.915 557.399 888.439 555.707 889.857L490.11 944.92C489.361 945.549 488.449 945.856 487.541 945.856Z" fill="#025920"/>
<path d="M435.499 989.545C434.357 989.545 433.224 989.06 432.433 988.117C431.013 986.425 431.233 983.902 432.925 982.481L465.004 955.55C466.695 954.13 469.219 954.35 470.64 956.042C472.06 957.734 471.84 960.257 470.148 961.678L438.068 988.609C437.319 989.238 436.407 989.545 435.499 989.545Z" fill="#025920"/>
<path d="M847.237 643.999C846.096 643.999 844.961 643.513 844.171 642.569C842.751 640.877 842.972 638.355 844.664 636.935L921.663 572.34C923.355 570.917 925.879 571.14 927.299 572.833C928.719 574.527 928.497 577.049 926.805 578.469L849.807 643.063C849.057 643.692 848.145 643.999 847.237 643.999Z" fill="#025920"/>
<path d="M944.194 562.661C943.053 562.661 941.918 562.175 941.128 561.232C939.708 559.54 939.929 557.016 941.622 555.597L988.66 516.142C990.35 514.72 992.874 514.944 994.294 516.636C995.714 518.328 995.493 520.852 993.801 522.271L946.762 561.725C946.014 562.355 945.101 562.661 944.194 562.661Z" fill="#025920"/>
<path d="M387.024 1030.22C385.888 1030.22 384.761 1029.74 383.969 1028.8C382.541 1027.12 382.751 1024.59 384.437 1023.17C395.28 1013.99 406.188 1004.83 416.857 995.963C418.557 994.552 421.08 994.783 422.492 996.481C423.904 998.181 423.671 1000.7 421.972 1002.11C411.321 1010.97 400.432 1020.11 389.607 1029.27C388.856 1029.91 387.937 1030.22 387.024 1030.22Z" fill="#025920"/>
<path d="M1088.87 537.835C1087.49 537.835 1086.15 537.117 1085.4 535.833C1084.3 533.92 1084.96 531.473 1086.87 530.369L1129.71 505.647C1131.63 504.544 1134.07 505.2 1135.18 507.112C1136.28 509.027 1135.62 511.473 1133.71 512.577L1090.87 537.299C1090.24 537.663 1089.55 537.835 1088.87 537.835Z" fill="#025920"/>
<path d="M368.25 953.9C366.868 953.9 365.524 953.182 364.782 951.9C363.678 949.986 364.333 947.54 366.246 946.436L464.137 889.893C466.052 888.788 468.497 889.442 469.601 891.356C470.705 893.268 470.05 895.714 468.138 896.82L370.248 953.362C369.617 953.726 368.929 953.9 368.25 953.9Z" fill="#025920"/>
<path d="M876.476 660.421C875.093 660.421 873.749 659.703 873.008 658.421C871.904 656.506 872.558 654.059 874.472 652.955L882.55 648.293C884.462 647.187 886.909 647.845 888.014 649.758C889.118 651.671 888.462 654.118 886.549 655.222L878.472 659.885C877.841 660.247 877.154 660.421 876.476 660.421Z" fill="#025920"/>
<path d="M932.321 628.188C930.938 628.188 929.594 627.471 928.853 626.187C927.749 624.274 928.403 621.827 930.318 620.723L1053.33 549.724C1055.25 548.619 1057.69 549.276 1058.8 551.19C1059.9 553.103 1059.24 555.55 1057.33 556.654L934.317 627.652C933.686 628.016 932.999 628.188 932.321 628.188Z" fill="#025920"/>
<path d="M308.319 988.501C306.943 988.501 305.603 987.791 304.861 986.516C303.747 984.608 304.391 982.159 306.299 981.045C319.765 973.191 333.25 965.405 346.381 957.904C348.301 956.808 350.742 957.475 351.838 959.393C352.934 961.312 352.267 963.755 350.349 964.851C337.239 972.34 323.775 980.113 310.331 987.956C309.697 988.325 309.003 988.501 308.319 988.501Z" fill="#025920"/>
<path d="M1108.49 609.404C1106.85 609.404 1105.32 608.394 1104.73 606.769C1103.97 604.693 1105.04 602.398 1107.12 601.644L1152.24 585.233C1154.31 584.477 1156.61 585.546 1157.37 587.625C1158.12 589.701 1157.05 591.996 1154.97 592.75L1109.85 609.161C1109.4 609.325 1108.94 609.404 1108.49 609.404Z" fill="#025920"/>
<path d="M349.531 885.653C347.898 885.653 346.364 884.645 345.772 883.021C345.016 880.945 346.087 878.65 348.162 877.893L454.087 839.316C456.163 838.558 458.459 839.628 459.215 841.705C459.971 843.781 458.902 846.076 456.826 846.832L350.9 885.41C350.448 885.574 349.986 885.653 349.531 885.653Z" fill="#025920"/>
<path d="M955.003 665.24C953.368 665.24 951.835 664.231 951.244 662.607C950.488 660.531 951.559 658.235 953.635 657.48L1071.8 614.491C1073.87 613.738 1076.17 614.806 1076.93 616.883C1077.68 618.959 1076.61 621.254 1074.53 622.01L956.371 664.998C955.919 665.162 955.458 665.24 955.003 665.24Z" fill="#025920"/>
<path d="M286.413 908.626C284.785 908.626 283.255 907.626 282.659 906.01C281.894 903.937 282.954 901.637 285.027 900.873C299.169 895.653 313.371 890.484 327.241 885.508C329.322 884.764 331.61 885.842 332.357 887.922C333.103 890.001 332.022 892.292 329.942 893.038C316.095 898.006 301.915 903.166 287.797 908.377C287.341 908.546 286.873 908.626 286.413 908.626Z" fill="#025920"/>
<path d="M1091.51 685.294C1089.6 685.294 1087.91 683.928 1087.57 681.987C1087.19 679.811 1088.64 677.738 1090.82 677.354L1133.97 669.756C1136.14 669.374 1138.21 670.826 1138.6 673.002C1138.98 675.178 1137.53 677.252 1135.35 677.635L1092.21 685.232C1091.97 685.274 1091.74 685.294 1091.51 685.294Z" fill="#025920"/>
<path d="M979.371 705.047C977.466 705.047 975.778 703.682 975.436 701.741C975.052 699.565 976.506 697.491 978.682 697.107L1057.04 683.302C1059.22 682.926 1061.29 684.373 1061.68 686.547C1062.06 688.723 1060.61 690.797 1058.43 691.181L980.07 704.986C979.835 705.027 979.602 705.047 979.371 705.047Z" fill="#025920"/>
<path d="M365.708 813.281C363.804 813.281 362.116 811.917 361.773 809.976C361.389 807.801 362.841 805.725 365.017 805.341L446.371 790.98C448.545 790.592 450.621 792.049 451.005 794.224C451.389 796.399 449.937 798.475 447.761 798.859L366.408 813.22C366.173 813.261 365.939 813.281 365.708 813.281Z" fill="#025920"/>
<path d="M305.346 823.925C303.449 823.925 301.764 822.569 301.414 820.637C301.021 818.462 302.465 816.381 304.638 815.988C318.213 813.532 331.797 811.137 345.012 808.869C347.193 808.497 349.257 809.957 349.63 812.136C350.004 814.313 348.541 816.381 346.365 816.754C333.174 819.017 319.614 821.408 306.064 823.861C305.822 823.904 305.582 823.925 305.346 823.925Z" fill="#025920"/>
<path d="M1192.97 750.81L1143.76 750.799C1141.55 750.798 1139.76 749.007 1139.76 746.798C1139.76 744.589 1141.55 742.799 1143.76 742.799L1192.97 742.81C1195.18 742.81 1196.97 744.602 1196.97 746.81C1196.97 749.019 1195.18 750.81 1192.97 750.81Z" fill="#025920"/>
<path d="M315.878 750.81C313.669 750.81 311.878 749.019 311.878 746.811C311.878 744.602 313.667 742.81 315.877 742.81C365.318 742.797 414.767 742.789 464.218 742.781C466.427 742.779 468.222 744.57 468.222 746.779C468.222 748.989 466.435 750.779 464.226 750.781C414.77 750.789 365.318 750.797 315.878 750.81Z" fill="#025920"/>
<path d="M1105.23 750.791L1007.37 750.776C1005.16 750.776 1003.37 748.986 1003.37 746.776C1003.37 744.567 1005.17 742.776 1007.37 742.776H1007.37L1105.23 742.791C1107.44 742.791 1109.23 744.583 1109.23 746.791C1109.23 749 1107.44 750.791 1105.23 750.791Z" fill="#025920"/>
<path d="M293.038 750.81H293.019C277.999 750.741 262.531 750.741 247.044 750.81H247.027C244.826 750.81 243.038 749.031 243.027 746.827C243.018 744.618 244.8 742.819 247.01 742.81C262.519 742.741 278.011 742.741 293.055 742.81C295.264 742.821 297.047 744.619 297.038 746.829C297.027 749.031 295.238 750.81 293.038 750.81Z" fill="#025920"/>
<path d="M1149.02 826.459C1148.79 826.459 1148.56 826.439 1148.32 826.398L1103.69 818.515C1101.51 818.131 1100.06 816.056 1100.44 813.882C1100.83 811.706 1102.9 810.248 1105.08 810.638L1149.71 818.519C1151.89 818.903 1153.34 820.979 1152.96 823.154C1152.62 825.095 1150.93 826.459 1149.02 826.459Z" fill="#025920"/>
<path d="M547.576 720.369C547.345 720.369 547.112 720.349 546.877 720.308L503.833 712.724C501.657 712.341 500.204 710.267 500.588 708.091C500.971 705.915 503.044 704.468 505.221 704.845L548.265 712.429C550.441 712.813 551.895 714.887 551.511 717.063C551.169 719.004 549.481 720.369 547.576 720.369Z" fill="#025920"/>
<path d="M480.72 708.591C480.475 708.591 480.225 708.568 479.976 708.521C457.256 704.247 434.132 700.291 411.769 696.467C392.365 693.147 372.3 689.715 352.7 686.107C350.528 685.707 349.091 683.621 349.491 681.449C349.891 679.277 351.976 677.836 354.148 678.24C373.699 681.839 393.739 685.265 413.119 688.581C435.513 692.412 458.671 696.372 481.455 700.659C483.627 701.067 485.055 703.159 484.647 705.329C484.285 707.251 482.607 708.591 480.72 708.591Z" fill="#025920"/>
<path d="M1069.44 812.408C1069.21 812.408 1068.98 812.388 1068.74 812.347L988.957 798.267C986.783 797.883 985.331 795.808 985.713 793.632C986.097 791.459 988.172 790.002 990.348 790.39L1070.13 804.468C1072.31 804.852 1073.76 806.927 1073.38 809.103C1073.03 811.043 1071.35 812.408 1069.44 812.408Z" fill="#025920"/>
<path d="M332.711 682.521C332.475 682.521 332.235 682.5 331.993 682.457C318.387 679.993 304.357 677.518 290.295 675.104C288.117 674.73 286.655 672.662 287.029 670.485C287.403 668.308 289.464 666.841 291.648 667.22C305.735 669.638 319.789 672.116 333.419 674.584C335.593 674.978 337.036 677.06 336.643 679.233C336.292 681.166 334.608 682.521 332.711 682.521Z" fill="#025920"/>
<path d="M1161.08 911.354C1160.63 911.354 1160.17 911.275 1159.71 911.111L1113.82 894.396C1111.75 893.64 1110.68 891.344 1111.43 889.268C1112.19 887.192 1114.49 886.123 1116.56 886.879L1162.45 903.594C1164.53 904.35 1165.6 906.646 1164.84 908.722C1164.25 910.346 1162.72 911.354 1161.08 911.354Z" fill="#025920"/>
<path d="M1079.26 881.555C1078.81 881.555 1078.35 881.476 1077.9 881.312L959.883 838.339C957.807 837.583 956.736 835.288 957.492 833.212C958.248 831.135 960.545 830.067 962.62 830.823L1080.63 873.795C1082.71 874.551 1083.78 876.847 1083.02 878.921C1082.43 880.547 1080.9 881.555 1079.26 881.555Z" fill="#025920"/>
<path d="M547.572 688.01C547.117 688.01 546.656 687.932 546.204 687.768L462.32 657.25C460.242 656.496 459.172 654.2 459.928 652.124C460.682 650.048 462.982 648.978 465.053 649.733L548.94 680.25C551.016 681.005 552.086 683.301 551.33 685.377C550.74 687.001 549.205 688.01 547.572 688.01Z" fill="#025920"/>
<path d="M426.988 644.143C426.533 644.143 426.072 644.065 425.621 643.901L341.741 613.394C339.665 612.639 338.595 610.343 339.349 608.267C340.104 606.191 342.401 605.119 344.476 605.875L428.355 636.383C430.432 637.138 431.503 639.433 430.747 641.509C430.156 643.134 428.623 644.143 426.988 644.143Z" fill="#025920"/>
<path d="M321.807 605.883C321.347 605.883 320.879 605.803 320.422 605.633C306.387 600.452 291.962 595.201 277.549 590.029C275.47 589.283 274.389 586.992 275.135 584.913C275.881 582.833 278.174 581.753 280.251 582.499C294.687 587.68 309.135 592.939 323.194 598.129C325.266 598.893 326.326 601.195 325.561 603.267C324.965 604.883 323.434 605.883 321.807 605.883Z" fill="#025920"/>
<path d="M1098.99 969.627C1098.31 969.627 1097.62 969.454 1096.99 969.09L1057.56 946.312C1055.65 945.208 1054.99 942.762 1056.1 940.848C1057.2 938.935 1059.65 938.28 1061.56 939.386L1100.99 962.163C1102.91 963.267 1103.56 965.714 1102.46 967.627C1101.72 968.91 1100.37 969.627 1098.99 969.627Z" fill="#025920"/>
<path d="M547.568 651.223C546.889 651.223 546.202 651.051 545.572 650.687C495.096 621.555 444.621 592.425 394.152 563.305C392.238 562.201 391.582 559.755 392.686 557.841C393.79 555.929 396.236 555.273 398.15 556.376C448.62 585.496 499.096 614.625 549.57 643.757C551.485 644.861 552.14 647.308 551.036 649.221C550.294 650.505 548.95 651.223 547.568 651.223Z" fill="#025920"/>
<path d="M871.133 838.024C870.455 838.024 869.767 837.851 869.136 837.488L825.016 812.012C823.103 810.907 822.448 808.46 823.552 806.548C824.657 804.635 827.104 803.979 829.016 805.083L873.137 830.559C875.051 831.664 875.705 834.111 874.601 836.024C873.86 837.307 872.516 838.024 871.133 838.024Z" fill="#025920"/>
<path d="M1028.69 929.02C1028.01 929.02 1027.32 928.847 1026.69 928.483L933.441 874.625C931.527 873.52 930.873 871.075 931.978 869.16C933.082 867.248 935.529 866.593 937.442 867.697L1030.7 921.556C1032.61 922.66 1033.26 925.107 1032.16 927.02C1031.42 928.303 1030.07 929.02 1028.69 929.02Z" fill="#025920"/>
<path d="M377.844 553.273C377.16 553.273 376.466 553.097 375.832 552.728C363.863 545.743 351.468 538.587 338.995 531.459C337.076 530.363 336.41 527.92 337.507 526.001C338.603 524.083 341.047 523.416 342.963 524.513C355.458 531.653 367.874 538.821 379.864 545.817C381.772 546.931 382.416 549.381 381.303 551.288C380.56 552.563 379.22 553.273 377.844 553.273Z" fill="#025920"/>
<path d="M1086.74 1058.55C1085.83 1058.55 1084.92 1058.24 1084.17 1057.61L1046.01 1025.58C1044.32 1024.16 1044.1 1021.64 1045.52 1019.95C1046.94 1018.26 1049.46 1018.04 1051.16 1019.45L1089.31 1051.48C1091 1052.91 1091.22 1055.43 1089.8 1057.12C1089.01 1058.06 1087.88 1058.55 1086.74 1058.55Z" fill="#025920"/>
<path d="M1018.71 1001.45C1017.81 1001.45 1016.89 1001.14 1016.14 1000.51L877.802 884.394C876.11 882.974 875.89 880.451 877.31 878.759C878.731 877.067 881.252 876.847 882.946 878.267L1021.29 994.382C1022.98 995.803 1023.2 998.326 1021.78 1000.02C1020.99 1000.96 1019.86 1001.45 1018.71 1001.45Z" fill="#025920"/>
<path d="M862.538 870.363C861.63 870.363 860.718 870.057 859.968 869.427L799.324 818.534C797.631 817.114 797.411 814.591 798.831 812.899C800.252 811.206 802.775 810.989 804.466 812.407L865.111 863.299C866.803 864.719 867.024 867.242 865.603 868.935C864.812 869.878 863.679 870.363 862.538 870.363Z" fill="#025920"/>
<path d="M547.596 606.108C546.688 606.108 545.776 605.801 545.027 605.172L469.55 541.861C467.858 540.441 467.636 537.919 469.056 536.227C470.476 534.533 473 534.313 474.691 535.732L550.17 599.044C551.862 600.464 552.083 602.987 550.663 604.679C549.872 605.621 548.738 606.108 547.596 606.108Z" fill="#025920"/>
<path d="M451.469 525.478C450.561 525.478 449.651 525.171 448.901 524.542L404.045 486.922C402.353 485.503 402.132 482.979 403.551 481.287C404.971 479.595 407.495 479.374 409.187 480.793L454.041 518.414C455.735 519.833 455.956 522.357 454.536 524.049C453.745 524.991 452.611 525.478 451.469 525.478Z" fill="#025920"/>
<path d="M388.901 472.996C387.988 472.996 387.069 472.685 386.319 472.048C374.72 462.224 362.727 452.161 350.669 442.135C348.971 440.723 348.737 438.2 350.151 436.501C351.564 434.803 354.085 434.571 355.784 435.984C367.86 446.024 379.873 456.105 391.488 465.944C393.175 467.372 393.383 469.896 391.956 471.581C391.164 472.516 390.037 472.996 388.901 472.996Z" fill="#025920"/>
<path d="M975.454 1055.26C974.313 1055.26 973.178 1054.78 972.388 1053.83L945.813 1022.15C944.393 1020.46 944.614 1017.93 946.308 1016.51C948 1015.09 950.522 1015.31 951.942 1017.01L978.517 1048.69C979.937 1050.38 979.716 1052.91 978.022 1054.33C977.273 1054.96 976.361 1055.26 975.454 1055.26Z" fill="#025920"/>
<path d="M578.573 582.24C577.431 582.24 576.298 581.755 575.507 580.812L498.631 489.232C497.211 487.54 497.431 485.016 499.122 483.596C500.815 482.175 503.337 482.396 504.758 484.087L581.634 575.668C583.054 577.36 582.834 579.883 581.142 581.304C580.393 581.934 579.481 582.24 578.573 582.24Z" fill="#025920"/>
<path d="M894.554 958.811C893.413 958.811 892.278 958.324 891.488 957.381L777.693 821.739C776.273 820.045 776.494 817.523 778.186 816.103C779.877 814.683 782.401 814.903 783.821 816.596L897.617 952.24C899.037 953.932 898.816 956.456 897.124 957.875C896.374 958.504 895.461 958.811 894.554 958.811Z" fill="#025920"/>
<path d="M928.075 998.773C926.934 998.773 925.799 998.286 925.009 997.343L907.053 975.937C905.633 974.245 905.854 971.721 907.546 970.301C909.237 968.881 911.761 969.102 913.182 970.795L931.138 992.202C932.558 993.894 932.337 996.417 930.645 997.837C929.895 998.466 928.983 998.773 928.075 998.773Z" fill="#025920"/>
<path d="M489.359 475.956C488.211 475.956 487.073 475.464 486.281 474.514C478.171 464.758 469.818 454.802 461.453 444.923C460.025 443.238 460.234 440.714 461.921 439.286C463.606 437.859 466.129 438.067 467.558 439.754C475.939 449.651 484.307 459.624 492.434 469.399C493.846 471.098 493.613 473.62 491.915 475.032C491.167 475.654 490.261 475.956 489.359 475.956Z" fill="#025920"/>
<path d="M911.765 1082.98C910.382 1082.98 909.037 1082.26 908.295 1080.98L888.349 1046.41C887.245 1044.5 887.902 1042.05 889.815 1040.95C891.729 1039.84 894.175 1040.5 895.279 1042.41L915.226 1076.98C916.33 1078.89 915.674 1081.34 913.761 1082.44C913.13 1082.81 912.442 1082.98 911.765 1082.98Z" fill="#025920"/>
<path d="M876.202 1021.35C874.819 1021.35 873.474 1020.63 872.734 1019.35L826.194 938.71C825.088 936.796 825.744 934.35 827.658 933.246C829.572 932.142 832.018 932.797 833.122 934.712L879.662 1015.35C880.767 1017.26 880.111 1019.71 878.198 1020.81C877.567 1021.18 876.88 1021.35 876.202 1021.35Z" fill="#025920"/>
<path d="M813.833 913.288C812.45 913.288 811.106 912.571 810.365 911.287L762.398 828.192C761.294 826.279 761.949 823.832 763.862 822.728C765.778 821.623 768.222 822.28 769.326 824.192L817.293 907.288C818.397 909.202 817.742 911.648 815.829 912.752C815.198 913.116 814.512 913.288 813.833 913.288Z" fill="#025920"/>
<path d="M616.994 572.372C615.611 572.372 614.267 571.654 613.526 570.372C593.233 535.234 572.938 500.098 552.645 464.97C551.541 463.058 552.194 460.612 554.107 459.506C556.021 458.404 558.467 459.056 559.573 460.969C579.866 496.097 600.161 531.233 620.454 566.37C621.558 568.284 620.903 570.73 618.991 571.834C618.361 572.198 617.673 572.372 616.994 572.372Z" fill="#025920"/>
<path d="M546.851 450.929C545.462 450.929 544.112 450.205 543.374 448.912C537.326 438.324 531.055 427.462 524.736 416.629C523.623 414.721 524.267 412.272 526.175 411.158C528.086 410.045 530.532 410.69 531.646 412.598C537.978 423.452 544.26 434.334 550.32 444.945C551.416 446.862 550.75 449.306 548.831 450.401C548.206 450.76 547.523 450.929 546.851 450.929Z" fill="#025920"/>
<path d="M875.545 1178.22C873.911 1178.22 872.377 1177.21 871.787 1175.59L855.608 1131.11C854.853 1129.03 855.924 1126.74 858 1125.98C860.073 1125.23 862.371 1126.3 863.127 1128.38L879.304 1172.85C880.06 1174.93 878.989 1177.22 876.912 1177.98C876.461 1178.14 876 1178.22 875.545 1178.22Z" fill="#025920"/>
<path d="M806.959 989.678C805.325 989.678 803.791 988.669 803.201 987.045L746.893 832.306C746.138 830.23 747.209 827.934 749.285 827.178C751.359 826.426 753.655 827.494 754.411 829.57L810.718 984.309C811.474 986.385 810.403 988.681 808.327 989.436C807.875 989.6 807.414 989.678 806.959 989.678Z" fill="#025920"/>
<path d="M826.36 1043C824.725 1043 823.192 1041.99 822.601 1040.37L810.833 1008.02C810.078 1005.95 811.149 1003.65 813.224 1002.9C815.301 1002.14 817.596 1003.21 818.352 1005.29L830.118 1037.63C830.874 1039.71 829.804 1042.01 827.728 1042.76C827.276 1042.92 826.814 1043 826.36 1043Z" fill="#025920"/>
<path d="M846.703 1098.93C845.068 1098.93 843.535 1097.92 842.944 1096.29L829.912 1060.47C829.158 1058.39 830.228 1056.1 832.304 1055.34C834.379 1054.59 836.675 1055.66 837.431 1057.73L850.462 1093.56C851.218 1095.63 850.147 1097.93 848.07 1098.68C847.619 1098.85 847.158 1098.93 846.703 1098.93Z" fill="#025920"/>
<path d="M651.422 562.338C649.788 562.338 648.255 561.33 647.663 559.705L609.423 454.698C608.668 452.622 609.738 450.327 611.814 449.571C613.884 448.814 616.184 449.885 616.94 451.961L655.18 556.969C655.936 559.043 654.866 561.339 652.79 562.095C652.338 562.259 651.876 562.338 651.422 562.338Z" fill="#025920"/>
<path d="M604.896 434.581C603.262 434.581 601.729 433.573 601.137 431.949L583.29 382.953C582.534 380.877 583.605 378.581 585.68 377.825C587.753 377.069 590.052 378.139 590.808 380.215L608.654 429.211C609.41 431.287 608.34 433.583 606.265 434.339C605.813 434.503 605.35 434.581 604.896 434.581Z" fill="#025920"/>
<path d="M579.536 364.944C577.896 364.944 576.357 363.927 575.771 362.293C570.879 348.659 565.792 334.681 560.649 320.748C559.885 318.676 560.945 316.376 563.017 315.611C565.091 314.844 567.391 315.907 568.155 317.979C573.305 331.933 578.401 345.935 583.301 359.592C584.047 361.671 582.967 363.961 580.887 364.708C580.44 364.868 579.984 364.944 579.536 364.944Z" fill="#025920"/>
<path d="M799.187 1200.07C797.282 1200.07 795.594 1198.7 795.253 1196.76L787.021 1150.01C786.638 1147.83 788.091 1145.76 790.266 1145.38C792.446 1145 794.517 1146.45 794.899 1148.62L803.131 1195.37C803.514 1197.55 802.061 1199.62 799.885 1200C799.651 1200.05 799.417 1200.07 799.187 1200.07Z" fill="#025920"/>
<path d="M684.943 551.936C683.038 551.936 681.351 550.57 681.008 548.63L669.854 485.425C669.47 483.249 670.922 481.174 673.098 480.79C675.276 480.406 677.347 481.858 677.731 484.034L688.887 547.24C689.271 549.416 687.818 551.49 685.643 551.874C685.408 551.916 685.174 551.936 684.943 551.936Z" fill="#025920"/>
<path d="M669.908 466.746C668.004 466.746 666.316 465.381 665.973 463.441L648.346 363.607C647.962 361.431 649.414 359.357 651.589 358.973C653.773 358.585 655.84 360.041 656.224 362.215L673.852 462.05C674.236 464.226 672.784 466.301 670.608 466.685C670.373 466.726 670.138 466.746 669.908 466.746Z" fill="#025920"/>
<path d="M784.51 1116.72C782.611 1116.72 780.926 1115.36 780.578 1113.43L776.521 1090.91C764.961 1026.78 753.007 960.475 742.278 896.06C741.915 893.881 743.387 891.819 745.566 891.457C747.751 891.101 749.806 892.566 750.17 894.745C760.89 959.109 772.839 1025.39 784.394 1089.49L788.451 1112.01C788.843 1114.18 787.398 1116.26 785.223 1116.66C784.983 1116.7 784.745 1116.72 784.51 1116.72Z" fill="#025920"/>
<path d="M742.5 878.305C740.595 878.305 738.908 876.94 738.566 875L730.804 830.968C730.42 828.792 731.874 826.717 734.048 826.333C736.226 825.957 738.299 827.403 738.683 829.579L746.444 873.611C746.828 875.785 745.375 877.861 743.199 878.244C742.964 878.285 742.731 878.305 742.5 878.305Z" fill="#025920"/>
<path d="M648.454 345.216C646.542 345.216 644.85 343.84 644.516 341.892C642.057 327.558 639.466 312.866 636.816 298.222C636.424 296.049 637.866 293.968 640.04 293.574C642.217 293.184 644.294 294.624 644.689 296.798C647.344 311.466 649.938 326.182 652.401 340.538C652.774 342.716 651.313 344.784 649.136 345.158C648.906 345.197 648.678 345.216 648.454 345.216Z" fill="#025920"/>
<path d="M719.977 1150.49C717.767 1150.49 715.977 1148.7 715.977 1146.49L715.986 1104.9C715.987 1102.69 717.778 1100.9 719.986 1100.9C722.195 1100.9 723.987 1102.69 723.986 1104.9L723.977 1146.49C723.977 1148.7 722.185 1150.49 719.977 1150.49Z" fill="#025920"/>
<path d="M720.004 542.219C717.794 542.219 716.004 540.429 716.004 538.219C715.997 493.897 715.988 449.574 715.976 405.259C715.976 403.05 717.766 401.259 719.976 401.258C722.185 401.258 723.976 403.049 723.976 405.257C723.988 449.573 723.997 493.895 724.004 538.219C724.004 540.427 722.213 542.219 720.004 542.219Z" fill="#025920"/>
<path d="M720.01 957.254C717.801 957.254 716.01 955.463 716.01 953.254L716.018 840.627C716.018 838.418 717.81 836.627 720.018 836.627C722.229 836.627 724.018 838.418 724.018 840.627L724.01 953.254C724.01 955.463 722.22 957.254 720.01 957.254Z" fill="#025920"/>
<path d="M719.993 1076.34C717.783 1076.34 715.993 1074.55 715.993 1072.34L716.006 985.82C716.006 983.612 717.798 981.822 720.006 981.822C722.214 981.822 724.006 983.614 724.006 985.822L723.993 1072.34C723.993 1074.55 722.201 1076.34 719.993 1076.34Z" fill="#025920"/>
<path d="M719.977 389.956H719.957C717.749 389.945 715.966 388.146 715.977 385.937C716.034 373.246 716.034 360.177 715.977 347.09C715.966 344.881 717.749 343.082 719.958 343.072H719.977C722.177 343.072 723.966 344.85 723.977 347.054C724.036 360.165 724.036 373.26 723.977 385.974C723.966 388.177 722.177 389.956 719.977 389.956Z" fill="#025920"/>
</g>
</g>
<defs>
<clipPath id="clip0_24_2">
<rect width="1440" height="1440" fill="white"/>
</clipPath>
</defs>
</svg>
